# xmcd
#
# Track frame offsets:
#	150
#	12616
#	26689
#	41136
#	53063
#	65881
#	75788
#	89200
#	107636
#	116860
#	131077
#	148762
#
# Disc length: 2163 seconds
# Revision: 1
# Processed by: cddbd v1.5.2PL0 Copyright (c) Steve Scherf et al.
# Submitted via: dBpowerAMP V12.0
#
DISCID=b108710c
DTITLE=Amber Digby - Here Come The Teardrops
DYEAR=2006
DGENRE=Classic Country
TTITLE0=Hinges on the Door
TTITLE1=If You Were Me
TTITLE2=Bitter They Are
TTITLE3=Flame in My Heart
TTITLE4=Another Man Loved Me Last Night
TTITLE5=Jealously Insane
TTITLE6=Just in Case
TTITLE7=Weak in the Knees
TTITLE8=A Man I Hardly Know
TTITLE9=Moment of Weakness
TTITLE10=If Anyone Ought to Know
TTITLE11=Loser's Game
EXTD=
EXTT0=
EXTT1=
EXTT2=
EXTT3=
EXTT4=
EXTT5=
EXTT6=
EXTT7=
EXTT8=
EXTT9=
EXTT10=
EXTT11=
PLAYORDER=
